# xmcd
#
# Track frame offsets:
#	150
#	16877
#	30747
#	43215
#	59665
#	73447
#	87155
#	104960
#	122677
#	136862
#	148395
#	164042
#	178335
#	191372
#	207817
#	226117
#	237827
#	252667
#	267192
#	278785
#
# Disc length: 3911 seconds
#
# Revision: 0
# Processed by: cddbd v1.5.2PL0 Copyright (c) Steve Scherf et al.
# Submitted via: dBpowerAMP V4.0
#
DISCID=3c0f4514
DTITLE=나훈아 - 2000곡 취입 기념 히트곡 모음집
DYEAR=1900
DGENRE=
TTITLE0=영영
TTITLE1=갈무리
TTITLE2=건배
TTITLE3=남천동 부르스
TTITLE4=첫눈
TTITLE5=바보꽃
TTITLE6=석류가 웃는 이유
TTITLE7=가시나무
TTITLE8=찻집의 고독
TTITLE9=사랑은 장난이 아니랍니다
TTITLE10=평양 아줌마
TTITLE11=모정의 세월
TTITLE12=헤어져도 사랑만은
TTITLE13=가라지
TTITLE14=사나이 눈물
TTITLE15=흰구름 가는 길
TTITLE16=후회
TTITLE17=가는 발길 멈추고
TTITLE18=연락선
TTITLE19=애정이 꽃피던 시절
EXTD=
EXTT0=
EXTT1=
EXTT2=
EXTT3=
EXTT4=
EXTT5=
EXTT6=
EXTT7=
EXTT8=
EXTT9=
EXTT10=
EXTT11=
EXTT12=
EXTT13=
EXTT14=
EXTT15=
EXTT16=
EXTT17=
EXTT18=
EXTT19=
PLAYORDER=
